<svg width="249" height="240" viewBox="0 0 249 240" fill="none" xmlns="http://www.w3.org/2000/svg">
<ellipse cx="123.052" cy="120" rx="120.157" ry="120" fill="#7A44D8"/>
<path d="M183.653 68.0879H68.0326C67.0219 68.0879 66.2025 68.8436 66.2025 69.7759V90.1393C66.2025 91.0716 67.0219 91.8273 68.0326 91.8273H183.653C184.664 91.8273 185.483 91.0716 185.483 90.1393V69.7759C185.483 68.8436 184.664 68.0879 183.653 68.0879Z" fill="#35323E"/>
<path d="M76.2978 39.3733C76.2978 39.3733 77.9923 81.8768 74.9881 86.8522H176.543C176.543 86.8522 172.229 54.1584 176.543 39.3733H76.2978Z" fill="white"/>
<path opacity="0.03" d="M76.2978 39.3733C76.2978 39.3733 77.9923 81.8768 74.9881 86.8522H176.543C176.543 86.8522 172.229 54.1584 176.543 39.3733H76.2978Z" fill="black"/>
<path d="M161.135 85.0413H86.699V93.5702H161.135V85.0413Z" fill="#35323E"/>
<path d="M194.276 185.436H56.312C55.2774 185.436 54.2544 185.235 53.3098 184.845C52.3653 184.456 51.5204 183.887 50.8305 183.176C50.1405 182.465 49.621 181.627 49.3058 180.718C48.9906 179.81 48.8869 178.849 49.0014 177.901L51.823 154.448C52.0088 152.889 52.1428 151.326 52.225 149.76L52.7553 133.857C52.877 130.264 53.1401 126.681 53.5446 123.106C53.7551 121.252 54.0017 119.403 54.2845 117.557L57.9127 94.2431C58.3746 91.3247 59.9594 88.6569 62.3776 86.7272C64.7958 84.7974 67.886 83.7346 71.0837 83.7327H76.5938C79.3899 83.7418 82.1078 84.5854 84.3409 86.1374C90.0483 90.0663 106.263 92.9009 125.378 92.9009C144.493 92.9009 160.71 90.0663 166.43 86.1283C168.663 84.5763 171.381 83.7326 174.177 83.7236H183.103C184.98 83.7236 186.796 84.3335 188.233 85.446C189.67 86.5585 190.636 88.1026 190.961 89.8069L195.833 115.287C196.326 117.877 196.745 120.478 197.088 123.09C197.66 127.432 198.02 131.793 198.166 136.173L198.659 150.949C198.763 154.031 199.052 157.104 199.525 160.156L202.142 177.062C202.305 178.102 202.223 179.162 201.902 180.17C201.582 181.179 201.03 182.112 200.283 182.906C199.537 183.7 198.615 184.337 197.578 184.774C196.542 185.21 195.416 185.436 194.276 185.436Z" fill="#464353"/>
<path opacity="0.1" d="M186.418 126.444H64.5007C61.7817 126.444 59.5776 128.477 59.5776 130.984V174.143C59.5776 176.651 61.7817 178.684 64.5007 178.684H186.418C189.137 178.684 191.341 176.651 191.341 174.143V130.984C191.341 128.477 189.137 126.444 186.418 126.444Z" fill="black"/>
<path d="M68.0524 135.468C70.1379 135.468 71.8286 134.164 71.8286 132.554C71.8286 130.945 70.1379 129.64 68.0524 129.64C65.9669 129.64 64.2762 130.945 64.2762 132.554C64.2762 134.164 65.9669 135.468 68.0524 135.468Z" fill="#302D38"/>
<path opacity="0.1" d="M68.0524 135.468C70.1379 135.468 71.8286 134.164 71.8286 132.554C71.8286 130.945 70.1379 129.64 68.0524 129.64C65.9669 129.64 64.2762 130.945 64.2762 132.554C64.2762 134.164 65.9669 135.468 68.0524 135.468Z" fill="black"/>
<path d="M68.0524 134.829C70.1379 134.829 71.8286 133.524 71.8286 131.915C71.8286 130.305 70.1379 129 68.0524 129C65.9669 129 64.2762 130.305 64.2762 131.915C64.2762 133.524 65.9669 134.829 68.0524 134.829Z" fill="#35323E"/>
<path d="M72.5216 145.633C74.6071 145.633 76.2977 144.328 76.2977 142.719C76.2977 141.109 74.6071 139.805 72.5216 139.805C70.4361 139.805 68.7454 141.109 68.7454 142.719C68.7454 144.328 70.4361 145.633 72.5216 145.633Z" fill="#35323E"/>
<path opacity="0.1" d="M72.5216 145.633C74.6071 145.633 76.2977 144.328 76.2977 142.719C76.2977 141.109 74.6071 139.805 72.5216 139.805C70.4361 139.805 68.7454 141.109 68.7454 142.719C68.7454 144.328 70.4361 145.633 72.5216 145.633Z" fill="black"/>
<path d="M72.5216 144.994C74.6071 144.994 76.2977 143.689 76.2977 142.079C76.2977 140.47 74.6071 139.165 72.5216 139.165C70.4361 139.165 68.7454 140.47 68.7454 142.079C68.7454 143.689 70.4361 144.994 72.5216 144.994Z" fill="#35323E"/>
<path d="M74.9881 155.798C77.0736 155.798 78.7643 154.493 78.7643 152.883C78.7643 151.274 77.0736 149.969 74.9881 149.969C72.9026 149.969 71.2119 151.274 71.2119 152.883C71.2119 154.493 72.9026 155.798 74.9881 155.798Z" fill="#35323E"/>
<path opacity="0.1" d="M74.9881 155.798C77.0736 155.798 78.7643 154.493 78.7643 152.883C78.7643 151.274 77.0736 149.969 74.9881 149.969C72.9026 149.969 71.2119 151.274 71.2119 152.883C71.2119 154.493 72.9026 155.798 74.9881 155.798Z" fill="black"/>
<path d="M74.9881 155.159C77.0736 155.159 78.7643 153.854 78.7643 152.244C78.7643 150.635 77.0736 149.33 74.9881 149.33C72.9026 149.33 71.2119 150.635 71.2119 152.244C71.2119 153.854 72.9026 155.159 74.9881 155.159Z" fill="#35323E"/>
<path d="M65.433 157.006C67.5186 157.006 69.2092 155.701 69.2092 154.091C69.2092 152.482 67.5186 151.177 65.433 151.177C63.3475 151.177 61.6569 152.482 61.6569 154.091C61.6569 155.701 63.3475 157.006 65.433 157.006Z" fill="#35323E"/>
<path opacity="0.1" d="M65.433 157.006C67.5186 157.006 69.2092 155.701 69.2092 154.091C69.2092 152.482 67.5186 151.177 65.433 151.177C63.3475 151.177 61.6569 152.482 61.6569 154.091C61.6569 155.701 63.3475 157.006 65.433 157.006Z" fill="black"/>
<path d="M65.433 156.366C67.5186 156.366 69.2092 155.062 69.2092 153.452C69.2092 151.843 67.5186 150.538 65.433 150.538C63.3475 150.538 61.6569 151.843 61.6569 153.452C61.6569 155.062 63.3475 156.366 65.433 156.366Z" fill="#35323E"/>
<path d="M79.6103 165.96C81.6958 165.96 83.3864 164.655 83.3864 163.046C83.3864 161.436 81.6958 160.131 79.6103 160.131C77.5248 160.131 75.8341 161.436 75.8341 163.046C75.8341 164.655 77.5248 165.96 79.6103 165.96Z" fill="#35323E"/>
<path opacity="0.1" d="M79.6103 165.96C81.6958 165.96 83.3864 164.655 83.3864 163.046C83.3864 161.436 81.6958 160.131 79.6103 160.131C77.5248 160.131 75.8341 161.436 75.8341 163.046C75.8341 164.655 77.5248 165.96 79.6103 165.96Z" fill="black"/>
<path d="M79.6103 165.32C81.6958 165.32 83.3864 164.016 83.3864 162.406C83.3864 160.797 81.6958 159.492 79.6103 159.492C77.5248 159.492 75.8341 160.797 75.8341 162.406C75.8341 164.016 77.5248 165.32 79.6103 165.32Z" fill="#35323E"/>
<path d="M66.9744 166.317C69.0599 166.317 70.7506 165.012 70.7506 163.403C70.7506 161.793 69.0599 160.489 66.9744 160.489C64.8889 160.489 63.1982 161.793 63.1982 163.403C63.1982 165.012 64.8889 166.317 66.9744 166.317Z" fill="#35323E"/>
<path opacity="0.1" d="M66.9744 166.317C69.0599 166.317 70.7506 165.012 70.7506 163.403C70.7506 161.793 69.0599 160.489 66.9744 160.489C64.8889 160.489 63.1982 161.793 63.1982 163.403C63.1982 165.012 64.8889 166.317 66.9744 166.317Z" fill="black"/>
<path d="M66.9744 165.676C69.0599 165.676 70.7506 164.371 70.7506 162.761C70.7506 161.152 69.0599 159.847 66.9744 159.847C64.8889 159.847 63.1982 161.152 63.1982 162.761C63.1982 164.371 64.8889 165.676 66.9744 165.676Z" fill="#35323E"/>
<path d="M90.0138 165.96C92.0993 165.96 93.7899 164.655 93.7899 163.046C93.7899 161.436 92.0993 160.131 90.0138 160.131C87.9283 160.131 86.2376 161.436 86.2376 163.046C86.2376 164.655 87.9283 165.96 90.0138 165.96Z" fill="#35323E"/>
<path opacity="0.1" d="M90.0138 165.96C92.0993 165.96 93.7899 164.655 93.7899 163.046C93.7899 161.436 92.0993 160.131 90.0138 160.131C87.9283 160.131 86.2376 161.436 86.2376 163.046C86.2376 164.655 87.9283 165.96 90.0138 165.96Z" fill="black"/>
<path d="M90.0138 165.32C92.0993 165.32 93.7899 164.016 93.7899 162.406C93.7899 160.797 92.0993 159.492 90.0138 159.492C87.9283 159.492 86.2376 160.797 86.2376 162.406C86.2376 164.016 87.9283 165.32 90.0138 165.32Z" fill="#35323E"/>
<path d="M101.032 165.96C103.117 165.96 104.808 164.655 104.808 163.046C104.808 161.436 103.117 160.131 101.032 160.131C98.946 160.131 97.2554 161.436 97.2554 163.046C97.2554 164.655 98.946 165.96 101.032 165.96Z" fill="#35323E"/>
<path opacity="0.1" d="M101.032 165.96C103.117 165.96 104.808 164.655 104.808 163.046C104.808 161.436 103.117 160.131 101.032 160.131C98.946 160.131 97.2554 161.436 97.2554 163.046C97.2554 164.655 98.946 165.96 101.032 165.96Z" fill="black"/>
<path d="M101.032 165.32C103.117 165.32 104.808 164.016 104.808 162.406C104.808 160.797 103.117 159.492 101.032 159.492C98.946 159.492 97.2554 160.797 97.2554 162.406C97.2554 164.016 98.946 165.32 101.032 165.32Z" fill="#35323E"/>
<path d="M111.203 165.96C113.289 165.96 114.979 164.655 114.979 163.046C114.979 161.436 113.289 160.131 111.203 160.131C109.118 160.131 107.427 161.436 107.427 163.046C107.427 164.655 109.118 165.96 111.203 165.96Z" fill="#35323E"/>
<path opacity="0.1" d="M111.203 165.96C113.289 165.96 114.979 164.655 114.979 163.046C114.979 161.436 113.289 160.131 111.203 160.131C109.118 160.131 107.427 161.436 107.427 163.046C107.427 164.655 109.118 165.96 111.203 165.96Z" fill="black"/>
<path d="M111.203 165.32C113.289 165.32 114.979 164.016 114.979 162.406C114.979 160.797 113.289 159.492 111.203 159.492C109.118 159.492 107.427 160.797 107.427 162.406C107.427 164.016 109.118 165.32 111.203 165.32Z" fill="#35323E"/>
<path d="M122.453 165.96C124.538 165.96 126.229 164.655 126.229 163.046C126.229 161.436 124.538 160.131 122.453 160.131C120.367 160.131 118.677 161.436 118.677 163.046C118.677 164.655 120.367 165.96 122.453 165.96Z" fill="#35323E"/>
<path opacity="0.1" d="M122.453 165.96C124.538 165.96 126.229 164.655 126.229 163.046C126.229 161.436 124.538 160.131 122.453 160.131C120.367 160.131 118.677 161.436 118.677 163.046C118.677 164.655 120.367 165.96 122.453 165.96Z" fill="black"/>
<path d="M122.453 165.32C124.538 165.32 126.229 164.016 126.229 162.406C126.229 160.797 124.538 159.492 122.453 159.492C120.367 159.492 118.677 160.797 118.677 162.406C118.677 164.016 120.367 165.32 122.453 165.32Z" fill="#35323E"/>
<path d="M132.625 165.96C134.71 165.96 136.401 164.655 136.401 163.046C136.401 161.436 134.71 160.131 132.625 160.131C130.539 160.131 128.848 161.436 128.848 163.046C128.848 164.655 130.539 165.96 132.625 165.96Z" fill="#35323E"/>
<path opacity="0.1" d="M132.625 165.96C134.71 165.96 136.401 164.655 136.401 163.046C136.401 161.436 134.71 160.131 132.625 160.131C130.539 160.131 128.848 161.436 128.848 163.046C128.848 164.655 130.539 165.96 132.625 165.96Z" fill="black"/>
<path d="M132.625 165.32C134.71 165.32 136.401 164.016 136.401 162.406C136.401 160.797 134.71 159.492 132.625 159.492C130.539 159.492 128.848 160.797 128.848 162.406C128.848 164.016 130.539 165.32 132.625 165.32Z" fill="#35323E"/>
<path d="M142.717 165.96C144.803 165.96 146.493 164.655 146.493 163.046C146.493 161.436 144.803 160.131 142.717 160.131C140.632 160.131 138.941 161.436 138.941 163.046C138.941 164.655 140.632 165.96 142.717 165.96Z" fill="#35323E"/>
<path opacity="0.1" d="M142.717 165.96C144.803 165.96 146.493 164.655 146.493 163.046C146.493 161.436 144.803 160.131 142.717 160.131C140.632 160.131 138.941 161.436 138.941 163.046C138.941 164.655 140.632 165.96 142.717 165.96Z" fill="black"/>
<path d="M142.717 165.32C144.803 165.32 146.493 164.016 146.493 162.406C146.493 160.797 144.803 159.492 142.717 159.492C140.632 159.492 138.941 160.797 138.941 162.406C138.941 164.016 140.632 165.32 142.717 165.32Z" fill="#35323E"/>
<path d="M153.661 165.96C155.747 165.96 157.437 164.655 157.437 163.046C157.437 161.436 155.747 160.131 153.661 160.131C151.576 160.131 149.885 161.436 149.885 163.046C149.885 164.655 151.576 165.96 153.661 165.96Z" fill="#35323E"/>
<path opacity="0.1" d="M153.661 165.96C155.747 165.96 157.437 164.655 157.437 163.046C157.437 161.436 155.747 160.131 153.661 160.131C151.576 160.131 149.885 161.436 149.885 163.046C149.885 164.655 151.576 165.96 153.661 165.96Z" fill="black"/>
<path d="M153.661 165.32C155.747 165.32 157.437 164.016 157.437 162.406C157.437 160.797 155.747 159.492 153.661 159.492C151.576 159.492 149.885 160.797 149.885 162.406C149.885 164.016 151.576 165.32 153.661 165.32Z" fill="#35323E"/>
<path d="M163.909 165.96C165.995 165.96 167.685 164.655 167.685 163.046C167.685 161.436 165.995 160.131 163.909 160.131C161.824 160.131 160.133 161.436 160.133 163.046C160.133 164.655 161.824 165.96 163.909 165.96Z" fill="#35323E"/>
<path opacity="0.1" d="M163.909 165.96C165.995 165.96 167.685 164.655 167.685 163.046C167.685 161.436 165.995 160.131 163.909 160.131C161.824 160.131 160.133 161.436 160.133 163.046C160.133 164.655 161.824 165.96 163.909 165.96Z" fill="black"/>
<path d="M163.909 165.32C165.995 165.32 167.685 164.016 167.685 162.406C167.685 160.797 165.995 159.492 163.909 159.492C161.824 159.492 160.133 160.797 160.133 162.406C160.133 164.016 161.824 165.32 163.909 165.32Z" fill="#35323E"/>
<path d="M175.235 165.96C177.321 165.96 179.011 164.655 179.011 163.046C179.011 161.436 177.321 160.131 175.235 160.131C173.15 160.131 171.459 161.436 171.459 163.046C171.459 164.655 173.15 165.96 175.235 165.96Z" fill="#35323E"/>
<path opacity="0.1" d="M175.235 165.96C177.321 165.96 179.011 164.655 179.011 163.046C179.011 161.436 177.321 160.131 175.235 160.131C173.15 160.131 171.459 161.436 171.459 163.046C171.459 164.655 173.15 165.96 175.235 165.96Z" fill="black"/>
<path d="M175.235 165.32C177.321 165.32 179.011 164.016 179.011 162.406C179.011 160.797 177.321 159.492 175.235 159.492C173.15 159.492 171.459 160.797 171.459 162.406C171.459 164.016 173.15 165.32 175.235 165.32Z" fill="#35323E"/>
<path d="M186.872 165.96C188.958 165.96 190.648 164.655 190.648 163.046C190.648 161.436 188.958 160.131 186.872 160.131C184.787 160.131 183.096 161.436 183.096 163.046C183.096 164.655 184.787 165.96 186.872 165.96Z" fill="#35323E"/>
<path opacity="0.1" d="M186.872 165.96C188.958 165.96 190.648 164.655 190.648 163.046C190.648 161.436 188.958 160.131 186.872 160.131C184.787 160.131 183.096 161.436 183.096 163.046C183.096 164.655 184.787 165.96 186.872 165.96Z" fill="black"/>
<path d="M186.872 165.32C188.958 165.32 190.648 164.016 190.648 162.406C190.648 160.797 188.958 159.492 186.872 159.492C184.787 159.492 183.096 160.797 183.096 162.406C183.096 164.016 184.787 165.32 186.872 165.32Z" fill="#35323E"/>
<path d="M85.4681 155.798C87.5536 155.798 89.2443 154.493 89.2443 152.883C89.2443 151.274 87.5536 149.969 85.4681 149.969C83.3826 149.969 81.692 151.274 81.692 152.883C81.692 154.493 83.3826 155.798 85.4681 155.798Z" fill="#35323E"/>
<path opacity="0.1" d="M85.4681 155.798C87.5536 155.798 89.2443 154.493 89.2443 152.883C89.2443 151.274 87.5536 149.969 85.4681 149.969C83.3826 149.969 81.692 151.274 81.692 152.883C81.692 154.493 83.3826 155.798 85.4681 155.798Z" fill="black"/>
<path d="M85.4681 155.159C87.5536 155.159 89.2443 153.854 89.2443 152.244C89.2443 150.635 87.5536 149.33 85.4681 149.33C83.3826 149.33 81.692 150.635 81.692 152.244C81.692 153.854 83.3826 155.159 85.4681 155.159Z" fill="#35323E"/>
<path d="M95.9456 155.798C98.0311 155.798 99.7218 154.493 99.7218 152.883C99.7218 151.274 98.0311 149.969 95.9456 149.969C93.8601 149.969 92.1694 151.274 92.1694 152.883C92.1694 154.493 93.8601 155.798 95.9456 155.798Z" fill="#35323E"/>
<path opacity="0.1" d="M95.9456 155.798C98.0311 155.798 99.7218 154.493 99.7218 152.883C99.7218 151.274 98.0311 149.969 95.9456 149.969C93.8601 149.969 92.1694 151.274 92.1694 152.883C92.1694 154.493 93.8601 155.798 95.9456 155.798Z" fill="black"/>
<path d="M95.9456 155.159C98.0311 155.159 99.7218 153.854 99.7218 152.244C99.7218 150.635 98.0311 149.33 95.9456 149.33C93.8601 149.33 92.1694 150.635 92.1694 152.244C92.1694 153.854 93.8601 155.159 95.9456 155.159Z" fill="#35323E"/>
<path d="M106.734 155.798C108.819 155.798 110.51 154.493 110.51 152.883C110.51 151.274 108.819 149.969 106.734 149.969C104.648 149.969 102.958 151.274 102.958 152.883C102.958 154.493 104.648 155.798 106.734 155.798Z" fill="#35323E"/>
<path opacity="0.1" d="M106.734 155.798C108.819 155.798 110.51 154.493 110.51 152.883C110.51 151.274 108.819 149.969 106.734 149.969C104.648 149.969 102.958 151.274 102.958 152.883C102.958 154.493 104.648 155.798 106.734 155.798Z" fill="black"/>
<path d="M106.734 155.159C108.819 155.159 110.51 153.854 110.51 152.244C110.51 150.635 108.819 149.33 106.734 149.33C104.648 149.33 102.958 150.635 102.958 152.244C102.958 153.854 104.648 155.159 106.734 155.159Z" fill="#35323E"/>
<path d="M117.059 155.798C119.144 155.798 120.835 154.493 120.835 152.883C120.835 151.274 119.144 149.969 117.059 149.969C114.973 149.969 113.283 151.274 113.283 152.883C113.283 154.493 114.973 155.798 117.059 155.798Z" fill="#35323E"/>
<path opacity="0.1" d="M117.059 155.798C119.144 155.798 120.835 154.493 120.835 152.883C120.835 151.274 119.144 149.969 117.059 149.969C114.973 149.969 113.283 151.274 113.283 152.883C113.283 154.493 114.973 155.798 117.059 155.798Z" fill="black"/>
<path d="M117.059 155.159C119.144 155.159 120.835 153.854 120.835 152.244C120.835 150.635 119.144 149.33 117.059 149.33C114.973 149.33 113.283 150.635 113.283 152.244C113.283 153.854 114.973 155.159 117.059 155.159Z" fill="#35323E"/>
<path d="M127.615 155.798C129.701 155.798 131.391 154.493 131.391 152.883C131.391 151.274 129.701 149.969 127.615 149.969C125.53 149.969 123.839 151.274 123.839 152.883C123.839 154.493 125.53 155.798 127.615 155.798Z" fill="#35323E"/>
<path opacity="0.1" d="M127.615 155.798C129.701 155.798 131.391 154.493 131.391 152.883C131.391 151.274 129.701 149.969 127.615 149.969C125.53 149.969 123.839 151.274 123.839 152.883C123.839 154.493 125.53 155.798 127.615 155.798Z" fill="black"/>
<path d="M127.615 155.159C129.701 155.159 131.391 153.854 131.391 152.244C131.391 150.635 129.701 149.33 127.615 149.33C125.53 149.33 123.839 150.635 123.839 152.244C123.839 153.854 125.53 155.159 127.615 155.159Z" fill="#35323E"/>
<path d="M137.71 155.798C139.796 155.798 141.487 154.493 141.487 152.883C141.487 151.274 139.796 149.969 137.71 149.969C135.625 149.969 133.934 151.274 133.934 152.883C133.934 154.493 135.625 155.798 137.71 155.798Z" fill="#35323E"/>
<path opacity="0.1" d="M137.71 155.798C139.796 155.798 141.487 154.493 141.487 152.883C141.487 151.274 139.796 149.969 137.71 149.969C135.625 149.969 133.934 151.274 133.934 152.883C133.934 154.493 135.625 155.798 137.71 155.798Z" fill="black"/>
<path d="M137.71 155.159C139.796 155.159 141.487 153.854 141.487 152.244C141.487 150.635 139.796 149.33 137.71 149.33C135.625 149.33 133.934 150.635 133.934 152.244C133.934 153.854 135.625 155.159 137.71 155.159Z" fill="#35323E"/>
<path d="M148.652 155.798C150.737 155.798 152.428 154.493 152.428 152.883C152.428 151.274 150.737 149.969 148.652 149.969C146.566 149.969 144.876 151.274 144.876 152.883C144.876 154.493 146.566 155.798 148.652 155.798Z" fill="#35323E"/>
<path opacity="0.1" d="M148.652 155.798C150.737 155.798 152.428 154.493 152.428 152.883C152.428 151.274 150.737 149.969 148.652 149.969C146.566 149.969 144.876 151.274 144.876 152.883C144.876 154.493 146.566 155.798 148.652 155.798Z" fill="black"/>
<path d="M148.652 155.159C150.737 155.159 152.428 153.854 152.428 152.244C152.428 150.635 150.737 149.33 148.652 149.33C146.566 149.33 144.876 150.635 144.876 152.244C144.876 153.854 146.566 155.159 148.652 155.159Z" fill="#35323E"/>
<path d="M159.055 155.798C161.141 155.798 162.831 154.493 162.831 152.883C162.831 151.274 161.141 149.969 159.055 149.969C156.97 149.969 155.279 151.274 155.279 152.883C155.279 154.493 156.97 155.798 159.055 155.798Z" fill="#35323E"/>
<path opacity="0.1" d="M159.055 155.798C161.141 155.798 162.831 154.493 162.831 152.883C162.831 151.274 161.141 149.969 159.055 149.969C156.97 149.969 155.279 151.274 155.279 152.883C155.279 154.493 156.97 155.798 159.055 155.798Z" fill="black"/>
<path d="M159.055 155.159C161.141 155.159 162.831 153.854 162.831 152.244C162.831 150.635 161.141 149.33 159.055 149.33C156.97 149.33 155.279 150.635 155.279 152.244C155.279 153.854 156.97 155.159 159.055 155.159Z" fill="#35323E"/>
<path d="M169.688 155.798C171.774 155.798 173.464 154.493 173.464 152.883C173.464 151.274 171.774 149.969 169.688 149.969C167.603 149.969 165.912 151.274 165.912 152.883C165.912 154.493 167.603 155.798 169.688 155.798Z" fill="#35323E"/>
<path opacity="0.1" d="M169.688 155.798C171.774 155.798 173.464 154.493 173.464 152.883C173.464 151.274 171.774 149.969 169.688 149.969C167.603 149.969 165.912 151.274 165.912 152.883C165.912 154.493 167.603 155.798 169.688 155.798Z" fill="black"/>
<path d="M169.688 155.159C171.774 155.159 173.464 153.854 173.464 152.244C173.464 150.635 171.774 149.33 169.688 149.33C167.603 149.33 165.912 150.635 165.912 152.244C165.912 153.854 167.603 155.159 169.688 155.159Z" fill="#35323E"/>
<path d="M180.321 155.798C182.407 155.798 184.097 154.493 184.097 152.883C184.097 151.274 182.407 149.969 180.321 149.969C178.236 149.969 176.545 151.274 176.545 152.883C176.545 154.493 178.236 155.798 180.321 155.798Z" fill="#35323E"/>
<path opacity="0.1" d="M180.321 155.798C182.407 155.798 184.097 154.493 184.097 152.883C184.097 151.274 182.407 149.969 180.321 149.969C178.236 149.969 176.545 151.274 176.545 152.883C176.545 154.493 178.236 155.798 180.321 155.798Z" fill="black"/>
<path d="M180.321 155.159C182.407 155.159 184.097 153.854 184.097 152.244C184.097 150.635 182.407 149.33 180.321 149.33C178.236 149.33 176.545 150.635 176.545 152.244C176.545 153.854 178.236 155.159 180.321 155.159Z" fill="#35323E"/>
<path d="M83.1547 145.633C85.2402 145.633 86.9308 144.328 86.9308 142.719C86.9308 141.109 85.2402 139.805 83.1547 139.805C81.0691 139.805 79.3785 141.109 79.3785 142.719C79.3785 144.328 81.0691 145.633 83.1547 145.633Z" fill="#35323E"/>
<path opacity="0.1" d="M83.1547 145.633C85.2402 145.633 86.9308 144.328 86.9308 142.719C86.9308 141.109 85.2402 139.805 83.1547 139.805C81.0691 139.805 79.3785 141.109 79.3785 142.719C79.3785 144.328 81.0691 145.633 83.1547 145.633Z" fill="black"/>
<path d="M83.1547 144.994C85.2402 144.994 86.9308 143.689 86.9308 142.079C86.9308 140.47 85.2402 139.165 83.1547 139.165C81.0691 139.165 79.3785 140.47 79.3785 142.079C79.3785 143.689 81.0691 144.994 83.1547 144.994Z" fill="#35323E"/>
<path d="M93.79 145.633C95.8755 145.633 97.5661 144.328 97.5661 142.719C97.5661 141.109 95.8755 139.805 93.79 139.805C91.7044 139.805 90.0138 141.109 90.0138 142.719C90.0138 144.328 91.7044 145.633 93.79 145.633Z" fill="#35323E"/>
<path opacity="0.1" d="M93.79 145.633C95.8755 145.633 97.5661 144.328 97.5661 142.719C97.5661 141.109 95.8755 139.805 93.79 139.805C91.7044 139.805 90.0138 141.109 90.0138 142.719C90.0138 144.328 91.7044 145.633 93.79 145.633Z" fill="black"/>
<path d="M93.79 144.994C95.8755 144.994 97.5661 143.689 97.5661 142.079C97.5661 140.47 95.8755 139.165 93.79 139.165C91.7044 139.165 90.0138 140.47 90.0138 142.079C90.0138 143.689 91.7044 144.994 93.79 144.994Z" fill="#35323E"/>
<path d="M104.038 145.633C106.124 145.633 107.814 144.328 107.814 142.719C107.814 141.109 106.124 139.805 104.038 139.805C101.953 139.805 100.262 141.109 100.262 142.719C100.262 144.328 101.953 145.633 104.038 145.633Z" fill="#35323E"/>
<path opacity="0.1" d="M104.038 145.633C106.124 145.633 107.814 144.328 107.814 142.719C107.814 141.109 106.124 139.805 104.038 139.805C101.953 139.805 100.262 141.109 100.262 142.719C100.262 144.328 101.953 145.633 104.038 145.633Z" fill="black"/>
<path d="M104.038 144.994C106.124 144.994 107.814 143.689 107.814 142.079C107.814 140.47 106.124 139.165 104.038 139.165C101.953 139.165 100.262 140.47 100.262 142.079C100.262 143.689 101.953 144.994 104.038 144.994Z" fill="#8C5DDF"/>
<path d="M114.286 145.633C116.372 145.633 118.062 144.328 118.062 142.719C118.062 141.109 116.372 139.805 114.286 139.805C112.201 139.805 110.51 141.109 110.51 142.719C110.51 144.328 112.201 145.633 114.286 145.633Z" fill="#35323E"/>
<path opacity="0.1" d="M114.286 145.633C116.372 145.633 118.062 144.328 118.062 142.719C118.062 141.109 116.372 139.805 114.286 139.805C112.201 139.805 110.51 141.109 110.51 142.719C110.51 144.328 112.201 145.633 114.286 145.633Z" fill="black"/>
<path d="M114.286 144.994C116.372 144.994 118.062 143.689 118.062 142.079C118.062 140.47 116.372 139.165 114.286 139.165C112.201 139.165 110.51 140.47 110.51 142.079C110.51 143.689 112.201 144.994 114.286 144.994Z" fill="#8C5DDF"/>
<path d="M124.611 145.633C126.697 145.633 128.387 144.328 128.387 142.719C128.387 141.109 126.697 139.805 124.611 139.805C122.525 139.805 120.835 141.109 120.835 142.719C120.835 144.328 122.525 145.633 124.611 145.633Z" fill="#35323E"/>
<path opacity="0.1" d="M124.611 145.633C126.697 145.633 128.387 144.328 128.387 142.719C128.387 141.109 126.697 139.805 124.611 139.805C122.525 139.805 120.835 141.109 120.835 142.719C120.835 144.328 122.525 145.633 124.611 145.633Z" fill="black"/>
<path d="M124.611 144.994C126.697 144.994 128.387 143.689 128.387 142.079C128.387 140.47 126.697 139.165 124.611 139.165C122.525 139.165 120.835 140.47 120.835 142.079C120.835 143.689 122.525 144.994 124.611 144.994Z" fill="#35323E"/>
<path d="M134.783 145.633C136.868 145.633 138.559 144.328 138.559 142.719C138.559 141.109 136.868 139.805 134.783 139.805C132.697 139.805 131.007 141.109 131.007 142.719C131.007 144.328 132.697 145.633 134.783 145.633Z" fill="#35323E"/>
<path opacity="0.1" d="M134.783 145.633C136.868 145.633 138.559 144.328 138.559 142.719C138.559 141.109 136.868 139.805 134.783 139.805C132.697 139.805 131.007 141.109 131.007 142.719C131.007 144.328 132.697 145.633 134.783 145.633Z" fill="black"/>
<path d="M134.783 144.994C136.868 144.994 138.559 143.689 138.559 142.079C138.559 140.47 136.868 139.165 134.783 139.165C132.697 139.165 131.007 140.47 131.007 142.079C131.007 143.689 132.697 144.994 134.783 144.994Z" fill="#35323E"/>
<path d="M145.569 145.633C147.654 145.633 149.345 144.328 149.345 142.719C149.345 141.109 147.654 139.805 145.569 139.805C143.483 139.805 141.792 141.109 141.792 142.719C141.792 144.328 143.483 145.633 145.569 145.633Z" fill="#35323E"/>
<path opacity="0.1" d="M145.569 145.633C147.654 145.633 149.345 144.328 149.345 142.719C149.345 141.109 147.654 139.805 145.569 139.805C143.483 139.805 141.792 141.109 141.792 142.719C141.792 144.328 143.483 145.633 145.569 145.633Z" fill="black"/>
<path d="M145.569 144.994C147.654 144.994 149.345 143.689 149.345 142.079C149.345 140.47 147.654 139.165 145.569 139.165C143.483 139.165 141.792 140.47 141.792 142.079C141.792 143.689 143.483 144.994 145.569 144.994Z" fill="#35323E"/>
<path d="M155.74 145.633C157.826 145.633 159.516 144.328 159.516 142.719C159.516 141.109 157.826 139.805 155.74 139.805C153.655 139.805 151.964 141.109 151.964 142.719C151.964 144.328 153.655 145.633 155.74 145.633Z" fill="#35323E"/>
<path opacity="0.1" d="M155.74 145.633C157.826 145.633 159.516 144.328 159.516 142.719C159.516 141.109 157.826 139.805 155.74 139.805C153.655 139.805 151.964 141.109 151.964 142.719C151.964 144.328 153.655 145.633 155.74 145.633Z" fill="black"/>
<path d="M155.74 144.994C157.826 144.994 159.516 143.689 159.516 142.079C159.516 140.47 157.826 139.165 155.74 139.165C153.655 139.165 151.964 140.47 151.964 142.079C151.964 143.689 153.655 144.994 155.74 144.994Z" fill="#35323E"/>
<path d="M166.605 145.633C168.691 145.633 170.381 144.328 170.381 142.719C170.381 141.109 168.691 139.805 166.605 139.805C164.52 139.805 162.829 141.109 162.829 142.719C162.829 144.328 164.52 145.633 166.605 145.633Z" fill="#35323E"/>
<path opacity="0.1" d="M166.605 145.633C168.691 145.633 170.381 144.328 170.381 142.719C170.381 141.109 168.691 139.805 166.605 139.805C164.52 139.805 162.829 141.109 162.829 142.719C162.829 144.328 164.52 145.633 166.605 145.633Z" fill="black"/>
<path d="M166.605 144.994C168.691 144.994 170.381 143.689 170.381 142.079C170.381 140.47 168.691 139.165 166.605 139.165C164.52 139.165 162.829 140.47 162.829 142.079C162.829 143.689 164.52 144.994 166.605 144.994Z" fill="#35323E"/>
<path d="M177.238 145.633C179.324 145.633 181.014 144.328 181.014 142.719C181.014 141.109 179.324 139.805 177.238 139.805C175.153 139.805 173.462 141.109 173.462 142.719C173.462 144.328 175.153 145.633 177.238 145.633Z" fill="#35323E"/>
<path opacity="0.1" d="M177.238 145.633C179.324 145.633 181.014 144.328 181.014 142.719C181.014 141.109 179.324 139.805 177.238 139.805C175.153 139.805 173.462 141.109 173.462 142.719C173.462 144.328 175.153 145.633 177.238 145.633Z" fill="black"/>
<path d="M177.238 144.994C179.324 144.994 181.014 143.689 181.014 142.079C181.014 140.47 179.324 139.165 177.238 139.165C175.153 139.165 173.462 140.47 173.462 142.079C173.462 143.689 175.153 144.994 177.238 144.994Z" fill="#35323E"/>
<path d="M77.9158 135.468C80.0013 135.468 81.692 134.164 81.692 132.554C81.692 130.945 80.0013 129.64 77.9158 129.64C75.8303 129.64 74.1396 130.945 74.1396 132.554C74.1396 134.164 75.8303 135.468 77.9158 135.468Z" fill="#35323E"/>
<path opacity="0.1" d="M77.9158 135.468C80.0013 135.468 81.692 134.164 81.692 132.554C81.692 130.945 80.0013 129.64 77.9158 129.64C75.8303 129.64 74.1396 130.945 74.1396 132.554C74.1396 134.164 75.8303 135.468 77.9158 135.468Z" fill="black"/>
<path d="M77.9158 134.829C80.0013 134.829 81.692 133.524 81.692 131.915C81.692 130.305 80.0013 129 77.9158 129C75.8303 129 74.1396 130.305 74.1396 131.915C74.1396 133.524 75.8303 134.829 77.9158 134.829Z" fill="#35323E"/>
<path d="M88.3959 135.468C90.4814 135.468 92.172 134.164 92.172 132.554C92.172 130.945 90.4814 129.64 88.3959 129.64C86.3103 129.64 84.6197 130.945 84.6197 132.554C84.6197 134.164 86.3103 135.468 88.3959 135.468Z" fill="#35323E"/>
<path opacity="0.1" d="M88.3959 135.468C90.4814 135.468 92.172 134.164 92.172 132.554C92.172 130.945 90.4814 129.64 88.3959 129.64C86.3103 129.64 84.6197 130.945 84.6197 132.554C84.6197 134.164 86.3103 135.468 88.3959 135.468Z" fill="black"/>
<path d="M88.3959 134.829C90.4814 134.829 92.172 133.524 92.172 131.915C92.172 130.305 90.4814 129 88.3959 129C86.3103 129 84.6197 130.305 84.6197 131.915C84.6197 133.524 86.3103 134.829 88.3959 134.829Z" fill="#35323E"/>
<path d="M98.4886 135.468C100.574 135.468 102.265 134.164 102.265 132.554C102.265 130.945 100.574 129.64 98.4886 129.64C96.4031 129.64 94.7125 130.945 94.7125 132.554C94.7125 134.164 96.4031 135.468 98.4886 135.468Z" fill="#35323E"/>
<path opacity="0.1" d="M98.4886 135.468C100.574 135.468 102.265 134.164 102.265 132.554C102.265 130.945 100.574 129.64 98.4886 129.64C96.4031 129.64 94.7125 130.945 94.7125 132.554C94.7125 134.164 96.4031 135.468 98.4886 135.468Z" fill="black"/>
<path d="M98.4886 134.829C100.574 134.829 102.265 133.524 102.265 131.915C102.265 130.305 100.574 129 98.4886 129C96.4031 129 94.7125 130.305 94.7125 131.915C94.7125 133.524 96.4031 134.829 98.4886 134.829Z" fill="#35323E"/>
<path d="M108.892 135.468C110.978 135.468 112.668 134.164 112.668 132.554C112.668 130.945 110.978 129.64 108.892 129.64C106.807 129.64 105.116 130.945 105.116 132.554C105.116 134.164 106.807 135.468 108.892 135.468Z" fill="#35323E"/>
<path opacity="0.1" d="M108.892 135.468C110.978 135.468 112.668 134.164 112.668 132.554C112.668 130.945 110.978 129.64 108.892 129.64C106.807 129.64 105.116 130.945 105.116 132.554C105.116 134.164 106.807 135.468 108.892 135.468Z" fill="black"/>
<path d="M108.892 134.829C110.978 134.829 112.668 133.524 112.668 131.915C112.668 130.305 110.978 129 108.892 129C106.807 129 105.116 130.305 105.116 131.915C105.116 133.524 106.807 134.829 108.892 134.829Z" fill="#35323E"/>
<path d="M119.14 135.468C121.226 135.468 122.917 134.164 122.917 132.554C122.917 130.945 121.226 129.64 119.14 129.64C117.055 129.64 115.364 130.945 115.364 132.554C115.364 134.164 117.055 135.468 119.14 135.468Z" fill="#35323E"/>
<path opacity="0.1" d="M119.14 135.468C121.226 135.468 122.917 134.164 122.917 132.554C122.917 130.945 121.226 129.64 119.14 129.64C117.055 129.64 115.364 130.945 115.364 132.554C115.364 134.164 117.055 135.468 119.14 135.468Z" fill="black"/>
<path d="M119.14 134.829C121.226 134.829 122.917 133.524 122.917 131.915C122.917 130.305 121.226 129 119.14 129C117.055 129 115.364 130.305 115.364 131.915C115.364 133.524 117.055 134.829 119.14 134.829Z" fill="#35323E"/>
<path d="M129.62 135.468C131.706 135.468 133.397 134.164 133.397 132.554C133.397 130.945 131.706 129.64 129.62 129.64C127.535 129.64 125.844 130.945 125.844 132.554C125.844 134.164 127.535 135.468 129.62 135.468Z" fill="#35323E"/>
<path opacity="0.1" d="M129.62 135.468C131.706 135.468 133.397 134.164 133.397 132.554C133.397 130.945 131.706 129.64 129.62 129.64C127.535 129.64 125.844 130.945 125.844 132.554C125.844 134.164 127.535 135.468 129.62 135.468Z" fill="black"/>
<path d="M129.62 134.829C131.706 134.829 133.397 133.524 133.397 131.915C133.397 130.305 131.706 129 129.62 129C127.535 129 125.844 130.305 125.844 131.915C125.844 133.524 127.535 134.829 129.62 134.829Z" fill="#35323E"/>
<path d="M139.869 135.468C141.954 135.468 143.645 134.164 143.645 132.554C143.645 130.945 141.954 129.64 139.869 129.64C137.783 129.64 136.092 130.945 136.092 132.554C136.092 134.164 137.783 135.468 139.869 135.468Z" fill="#35323E"/>
<path opacity="0.1" d="M139.869 135.468C141.954 135.468 143.645 134.164 143.645 132.554C143.645 130.945 141.954 129.64 139.869 129.64C137.783 129.64 136.092 130.945 136.092 132.554C136.092 134.164 137.783 135.468 139.869 135.468Z" fill="black"/>
<path d="M139.869 134.829C141.954 134.829 143.645 133.524 143.645 131.915C143.645 130.305 141.954 129 139.869 129C137.783 129 136.092 130.305 136.092 131.915C136.092 133.524 137.783 134.829 139.869 134.829Z" fill="#35323E"/>
<path d="M150.27 135.468C152.355 135.468 154.046 134.164 154.046 132.554C154.046 130.945 152.355 129.64 150.27 129.64C148.184 129.64 146.493 130.945 146.493 132.554C146.493 134.164 148.184 135.468 150.27 135.468Z" fill="#35323E"/>
<path opacity="0.1" d="M150.27 135.468C152.355 135.468 154.046 134.164 154.046 132.554C154.046 130.945 152.355 129.64 150.27 129.64C148.184 129.64 146.493 130.945 146.493 132.554C146.493 134.164 148.184 135.468 150.27 135.468Z" fill="black"/>
<path d="M150.27 134.829C152.355 134.829 154.046 133.524 154.046 131.915C154.046 130.305 152.355 129 150.27 129C148.184 129 146.493 130.305 146.493 131.915C146.493 133.524 148.184 134.829 150.27 134.829Z" fill="#35323E"/>
<path d="M160.982 135.468C163.067 135.468 164.758 134.164 164.758 132.554C164.758 130.945 163.067 129.64 160.982 129.64C158.896 129.64 157.205 130.945 157.205 132.554C157.205 134.164 158.896 135.468 160.982 135.468Z" fill="#35323E"/>
<path opacity="0.1" d="M160.982 135.468C163.067 135.468 164.758 134.164 164.758 132.554C164.758 130.945 163.067 129.64 160.982 129.64C158.896 129.64 157.205 130.945 157.205 132.554C157.205 134.164 158.896 135.468 160.982 135.468Z" fill="black"/>
<path d="M160.982 134.829C163.067 134.829 164.758 133.524 164.758 131.915C164.758 130.305 163.067 129 160.982 129C158.896 129 157.205 130.305 157.205 131.915C157.205 133.524 158.896 134.829 160.982 134.829Z" fill="#35323E"/>
<path d="M171.459 135.468C173.545 135.468 175.235 134.164 175.235 132.554C175.235 130.945 173.545 129.64 171.459 129.64C169.374 129.64 167.683 130.945 167.683 132.554C167.683 134.164 169.374 135.468 171.459 135.468Z" fill="#35323E"/>
<path opacity="0.1" d="M171.459 135.468C173.545 135.468 175.235 134.164 175.235 132.554C175.235 130.945 173.545 129.64 171.459 129.64C169.374 129.64 167.683 130.945 167.683 132.554C167.683 134.164 169.374 135.468 171.459 135.468Z" fill="black"/>
<path d="M171.459 134.829C173.545 134.829 175.235 133.524 175.235 131.915C175.235 130.305 173.545 129 171.459 129C169.374 129 167.683 130.305 167.683 131.915C167.683 133.524 169.374 134.829 171.459 134.829Z" fill="#35323E"/>
<path d="M181.707 135.468C183.793 135.468 185.484 134.164 185.484 132.554C185.484 130.945 183.793 129.64 181.707 129.64C179.622 129.64 177.931 130.945 177.931 132.554C177.931 134.164 179.622 135.468 181.707 135.468Z" fill="#302D38"/>
<path opacity="0.1" d="M181.707 135.468C183.793 135.468 185.484 134.164 185.484 132.554C185.484 130.945 183.793 129.64 181.707 129.64C179.622 129.64 177.931 130.945 177.931 132.554C177.931 134.164 179.622 135.468 181.707 135.468Z" fill="#302D38"/>
<path d="M181.707 134.829C183.793 134.829 185.484 133.524 185.484 131.915C185.484 130.305 183.793 129 181.707 129C179.622 129 177.931 130.305 177.931 131.915C177.931 133.524 179.622 134.829 181.707 134.829Z" fill="#35323E"/>
<path d="M181.167 169.87H70.2895C69.0539 169.87 68.0524 170.794 68.0524 171.934V173.422C68.0524 174.561 69.0539 175.485 70.2895 175.485H181.167C182.403 175.485 183.404 174.561 183.404 173.422V171.934C183.404 170.794 182.403 169.87 181.167 169.87Z" fill="#35323E"/>
<path opacity="0.1" d="M181.167 169.87H70.2895C69.0539 169.87 68.0524 170.794 68.0524 171.934V173.422C68.0524 174.561 69.0539 175.485 70.2895 175.485H181.167C182.403 175.485 183.404 174.561 183.404 173.422V171.934C183.404 170.794 182.403 169.87 181.167 169.87Z" fill="black"/>
<path d="M181.167 169.443H70.2895C69.0539 169.443 68.0524 170.367 68.0524 171.506V172.994C68.0524 174.134 69.0539 175.057 70.2895 175.057H181.167C182.403 175.057 183.404 174.134 183.404 172.994V171.506C183.404 170.367 182.403 169.443 181.167 169.443Z" fill="#35323E"/>
<path opacity="0.1" d="M167.685 102.916C167.685 108.922 147.076 115.353 123.839 115.353C100.602 115.353 83.3889 108.423 83.3889 102.418C83.3889 96.4116 100.607 93.6042 123.839 93.6042C147.071 93.6042 167.685 96.9098 167.685 102.916Z" fill="black"/>
<path d="M188.103 85.2888C189.507 85.2888 190.646 82.6956 190.646 79.4967C190.646 76.2978 189.507 73.7046 188.103 73.7046C186.698 73.7046 185.56 76.2978 185.56 79.4967C185.56 82.6956 186.698 85.2888 188.103 85.2888Z" fill="#464353"/>
<path d="M63.5832 85.2888C64.9876 85.2888 66.1261 82.6956 66.1261 79.4967C66.1261 76.2978 64.9876 73.7046 63.5832 73.7046C62.1787 73.7046 61.0402 76.2978 61.0402 79.4967C61.0402 82.6956 62.1787 85.2888 63.5832 85.2888Z" fill="#464353"/>
<path opacity="0.1" d="M188.103 78.1116H65.433V79.8178H188.103V78.1116Z" fill="black"/>
<path d="M188.103 77.8267H65.433V79.5329H188.103V77.8267Z" fill="#464353"/>
<path d="M128.693 79.9589C127.689 79.6746 125.842 85.2892 125.842 85.2892H131.465C131.465 85.2892 129.697 80.2433 128.693 79.9589ZM128.614 80.6687C128.721 80.6683 128.826 80.6971 128.915 80.7516C129.004 80.8061 129.074 80.8837 129.115 80.9747C129.156 81.0657 129.167 81.166 129.147 81.2627C129.126 81.3595 129.075 81.4485 128.999 81.5184C128.924 81.5883 128.828 81.636 128.723 81.6554C128.618 81.6748 128.509 81.6651 128.41 81.6275C128.312 81.5898 128.227 81.526 128.168 81.444C128.108 81.362 128.076 81.2656 128.076 81.167C128.076 81.1015 128.09 81.0367 128.117 80.9763C128.145 80.9158 128.184 80.8609 128.235 80.8147C128.285 80.7684 128.344 80.7317 128.41 80.7067C128.475 80.6816 128.546 80.6687 128.616 80.6687H128.614ZM128.678 82.2749C129.337 82.4227 130.503 85.0754 130.503 85.0754H126.804C126.804 85.0754 128.022 82.1247 128.693 82.2749H128.678Z" fill="#464353"/>
<path opacity="0.03" d="M197.088 123.097H53.5397C53.7501 121.243 53.9968 119.394 54.2796 117.548L57.9078 94.2341C58.3697 91.3156 59.9545 88.6478 62.3727 86.7181C64.7909 84.7883 67.8811 83.7255 71.0787 83.7236H76.5888C79.385 83.7326 82.1028 84.5763 84.336 86.1283C90.0434 90.0572 106.258 92.8918 125.373 92.8918C144.488 92.8918 160.71 90.0663 166.43 86.1283C168.663 84.5763 171.381 83.7326 174.177 83.7236H183.103C184.98 83.7236 186.796 84.3335 188.233 85.446C189.67 86.5585 190.636 88.1026 190.962 89.8069L195.833 115.287C196.326 117.886 196.745 120.49 197.088 123.097Z" fill="#008080"/>
<path d="M76.1967 39.3752L76.5839 48.7823L87.8014 39.3752H76.1967Z" fill="white"/>
<path opacity="0.03" d="M76.1967 39.3752L76.5839 48.7823L87.8014 39.3752H76.1967Z" fill="black"/>
</svg>
